<mxfile host="app.diagrams.net" modified="2021-11-29T03:25:35.294Z" agent="5.0 (Macintosh; Intel Mac OS X 10_15_7) AppleWebKit/537.36 (KHTML, like Gecko) Chrome/96.0.4664.45 Safari/537.36" etag="wc40e-PyEryhf4yEOlMF" version="15.8.2" type="github">
  <diagram id="C5RBs43oDa-KdzZeNtuy" name="Page-1">
    <mxGraphModel dx="1026" dy="518" grid="1" gridSize="10" guides="1" tooltips="1" connect="1" arrows="1" fold="1" page="1" pageScale="1" pageWidth="827" pageHeight="1169" math="0" shadow="0">
      <root>
        <mxCell id="WIyWlLk6GJQsqaUBKTNV-0" />
        <mxCell id="WIyWlLk6GJQsqaUBKTNV-1" parent="WIyWlLk6GJQsqaUBKTNV-0" />
        <mxCell id="mcNSB_kxSIxarIurhQJE-0" value="MainModel" style="swimlane;fontStyle=1;align=center;verticalAlign=top;childLayout=stackLayout;horizontal=1;startSize=26;horizontalStack=0;resizeParent=1;resizeParentMax=0;resizeLast=0;collapsible=1;marginBottom=0;" vertex="1" parent="WIyWlLk6GJQsqaUBKTNV-1">
          <mxGeometry x="40" y="80" width="260" height="240" as="geometry" />
        </mxCell>
        <mxCell id="mcNSB_kxSIxarIurhQJE-1" value="+ fullResult: ArrayList&lt;PatientData&gt;&#xa;+ mean: double&#xa;+ stdev: double&#xa;+ dataSize: int" style="text;strokeColor=none;fillColor=none;align=left;verticalAlign=top;spacingLeft=4;spacingRight=4;overflow=hidden;rotatable=0;points=[[0,0.5],[1,0.5]];portConstraint=eastwest;" vertex="1" parent="mcNSB_kxSIxarIurhQJE-0">
          <mxGeometry y="26" width="260" height="64" as="geometry" />
        </mxCell>
        <mxCell id="mcNSB_kxSIxarIurhQJE-2" value="" style="line;strokeWidth=1;fillColor=none;align=left;verticalAlign=middle;spacingTop=-1;spacingLeft=3;spacingRight=3;rotatable=0;labelPosition=right;points=[];portConstraint=eastwest;" vertex="1" parent="mcNSB_kxSIxarIurhQJE-0">
          <mxGeometry y="90" width="260" height="8" as="geometry" />
        </mxCell>
        <mxCell id="mcNSB_kxSIxarIurhQJE-3" value="+ setFullResult (ArrayList&lt;PatientData&gt;): void&#xa;+ getFullResult ( ): ArrayList&lt;PatientData&gt;&#xa;+ getMean ( ): double&#xa;+ setMean (double): void&#xa;+ getStdev ( ): double&#xa;+ setStdev (double): void&#xa;+ getDataSize ( ): int&#xa;+ setDataSize (int): void" style="text;strokeColor=none;fillColor=none;align=left;verticalAlign=top;spacingLeft=4;spacingRight=4;overflow=hidden;rotatable=0;points=[[0,0.5],[1,0.5]];portConstraint=eastwest;" vertex="1" parent="mcNSB_kxSIxarIurhQJE-0">
          <mxGeometry y="98" width="260" height="142" as="geometry" />
        </mxCell>
        <mxCell id="mcNSB_kxSIxarIurhQJE-4" value="ValidateInput" style="swimlane;fontStyle=1;align=center;verticalAlign=top;childLayout=stackLayout;horizontal=1;startSize=26;horizontalStack=0;resizeParent=1;resizeParentMax=0;resizeLast=0;collapsible=1;marginBottom=0;" vertex="1" parent="WIyWlLk6GJQsqaUBKTNV-1">
          <mxGeometry x="334" y="80" width="160" height="86" as="geometry" />
        </mxCell>
        <mxCell id="mcNSB_kxSIxarIurhQJE-5" value="     " style="text;strokeColor=none;fillColor=none;align=left;verticalAlign=top;spacingLeft=4;spacingRight=4;overflow=hidden;rotatable=0;points=[[0,0.5],[1,0.5]];portConstraint=eastwest;" vertex="1" parent="mcNSB_kxSIxarIurhQJE-4">
          <mxGeometry y="26" width="160" height="26" as="geometry" />
        </mxCell>
        <mxCell id="mcNSB_kxSIxarIurhQJE-6" value="" style="line;strokeWidth=1;fillColor=none;align=left;verticalAlign=middle;spacingTop=-1;spacingLeft=3;spacingRight=3;rotatable=0;labelPosition=right;points=[];portConstraint=eastwest;" vertex="1" parent="mcNSB_kxSIxarIurhQJE-4">
          <mxGeometry y="52" width="160" height="8" as="geometry" />
        </mxCell>
        <mxCell id="mcNSB_kxSIxarIurhQJE-7" value="+ validateInt (String): int" style="text;strokeColor=none;fillColor=none;align=left;verticalAlign=top;spacingLeft=4;spacingRight=4;overflow=hidden;rotatable=0;points=[[0,0.5],[1,0.5]];portConstraint=eastwest;" vertex="1" parent="mcNSB_kxSIxarIurhQJE-4">
          <mxGeometry y="60" width="160" height="26" as="geometry" />
        </mxCell>
        <mxCell id="mcNSB_kxSIxarIurhQJE-8" value="Probability" style="swimlane;fontStyle=1;align=center;verticalAlign=top;childLayout=stackLayout;horizontal=1;startSize=26;horizontalStack=0;resizeParent=1;resizeParentMax=0;resizeLast=0;collapsible=1;marginBottom=0;" vertex="1" parent="WIyWlLk6GJQsqaUBKTNV-1">
          <mxGeometry x="520" y="80" width="280" height="140" as="geometry" />
        </mxCell>
        <mxCell id="mcNSB_kxSIxarIurhQJE-9" value="+ mean: float" style="text;strokeColor=none;fillColor=none;align=left;verticalAlign=top;spacingLeft=4;spacingRight=4;overflow=hidden;rotatable=0;points=[[0,0.5],[1,0.5]];portConstraint=eastwest;" vertex="1" parent="mcNSB_kxSIxarIurhQJE-8">
          <mxGeometry y="26" width="280" height="26" as="geometry" />
        </mxCell>
        <mxCell id="mcNSB_kxSIxarIurhQJE-10" value="" style="line;strokeWidth=1;fillColor=none;align=left;verticalAlign=middle;spacingTop=-1;spacingLeft=3;spacingRight=3;rotatable=0;labelPosition=right;points=[];portConstraint=eastwest;" vertex="1" parent="mcNSB_kxSIxarIurhQJE-8">
          <mxGeometry y="52" width="280" height="8" as="geometry" />
        </mxCell>
        <mxCell id="mcNSB_kxSIxarIurhQJE-11" value="+ setMean (float): void &#xa;+ mean (double): double&#xa;+ stdev (double): double&#xa;+ densityFunction (double, double, int, int): double" style="text;strokeColor=none;fillColor=none;align=left;verticalAlign=top;spacingLeft=4;spacingRight=4;overflow=hidden;rotatable=0;points=[[0,0.5],[1,0.5]];portConstraint=eastwest;" vertex="1" parent="mcNSB_kxSIxarIurhQJE-8">
          <mxGeometry y="60" width="280" height="80" as="geometry" />
        </mxCell>
        <mxCell id="mcNSB_kxSIxarIurhQJE-12" value="PatientData" style="swimlane;fontStyle=1;align=center;verticalAlign=top;childLayout=stackLayout;horizontal=1;startSize=26;horizontalStack=0;resizeParent=1;resizeParentMax=0;resizeLast=0;collapsible=1;marginBottom=0;" vertex="1" parent="WIyWlLk6GJQsqaUBKTNV-1">
          <mxGeometry x="50" y="370" width="210" height="200" as="geometry" />
        </mxCell>
        <mxCell id="mcNSB_kxSIxarIurhQJE-13" value="+ age: byte&#xa;+ epoc: byte&#xa;+ diabetes: byte&#xa;+ asma: byte" style="text;strokeColor=none;fillColor=none;align=left;verticalAlign=top;spacingLeft=4;spacingRight=4;overflow=hidden;rotatable=0;points=[[0,0.5],[1,0.5]];portConstraint=eastwest;" vertex="1" parent="mcNSB_kxSIxarIurhQJE-12">
          <mxGeometry y="26" width="210" height="74" as="geometry" />
        </mxCell>
        <mxCell id="mcNSB_kxSIxarIurhQJE-14" value="" style="line;strokeWidth=1;fillColor=none;align=left;verticalAlign=middle;spacingTop=-1;spacingLeft=3;spacingRight=3;rotatable=0;labelPosition=right;points=[];portConstraint=eastwest;" vertex="1" parent="mcNSB_kxSIxarIurhQJE-12">
          <mxGeometry y="100" width="210" height="8" as="geometry" />
        </mxCell>
        <mxCell id="mcNSB_kxSIxarIurhQJE-15" value="+ PatientData (byte, byte, byte, byte)&#xa;+ getAge ( ): byte&#xa;+ getEpoc ( ): byte&#xa;+ getDiabetes ( ): byte&#xa;+ getAsma ( ): byte" style="text;strokeColor=none;fillColor=none;align=left;verticalAlign=top;spacingLeft=4;spacingRight=4;overflow=hidden;rotatable=0;points=[[0,0.5],[1,0.5]];portConstraint=eastwest;" vertex="1" parent="mcNSB_kxSIxarIurhQJE-12">
          <mxGeometry y="108" width="210" height="92" as="geometry" />
        </mxCell>
        <mxCell id="mcNSB_kxSIxarIurhQJE-16" value="DataAnalysis" style="swimlane;fontStyle=1;align=center;verticalAlign=top;childLayout=stackLayout;horizontal=1;startSize=26;horizontalStack=0;resizeParent=1;resizeParentMax=0;resizeLast=0;collapsible=1;marginBottom=0;" vertex="1" parent="WIyWlLk6GJQsqaUBKTNV-1">
          <mxGeometry x="400" y="340" width="360" height="100" as="geometry" />
        </mxCell>
        <mxCell id="mcNSB_kxSIxarIurhQJE-17" value="    " style="text;strokeColor=none;fillColor=none;align=left;verticalAlign=top;spacingLeft=4;spacingRight=4;overflow=hidden;rotatable=0;points=[[0,0.5],[1,0.5]];portConstraint=eastwest;" vertex="1" parent="mcNSB_kxSIxarIurhQJE-16">
          <mxGeometry y="26" width="360" height="26" as="geometry" />
        </mxCell>
        <mxCell id="mcNSB_kxSIxarIurhQJE-18" value="" style="line;strokeWidth=1;fillColor=none;align=left;verticalAlign=middle;spacingTop=-1;spacingLeft=3;spacingRight=3;rotatable=0;labelPosition=right;points=[];portConstraint=eastwest;" vertex="1" parent="mcNSB_kxSIxarIurhQJE-16">
          <mxGeometry y="52" width="360" height="8" as="geometry" />
        </mxCell>
        <mxCell id="mcNSB_kxSIxarIurhQJE-19" value="+ listExtraction (ArrayList&lt;PatientData&gt;, String): ArrayList&lt;byte&gt;" style="text;strokeColor=none;fillColor=none;align=left;verticalAlign=top;spacingLeft=4;spacingRight=4;overflow=hidden;rotatable=0;points=[[0,0.5],[1,0.5]];portConstraint=eastwest;" vertex="1" parent="mcNSB_kxSIxarIurhQJE-16">
          <mxGeometry y="60" width="360" height="40" as="geometry" />
        </mxCell>
        <mxCell id="mcNSB_kxSIxarIurhQJE-20" value="ConnectDB" style="swimlane;fontStyle=1;align=center;verticalAlign=top;childLayout=stackLayout;horizontal=1;startSize=26;horizontalStack=0;resizeParent=1;resizeParentMax=0;resizeLast=0;collapsible=1;marginBottom=0;" vertex="1" parent="WIyWlLk6GJQsqaUBKTNV-1">
          <mxGeometry x="150" y="680" width="180" height="200" as="geometry" />
        </mxCell>
        <mxCell id="mcNSB_kxSIxarIurhQJE-21" value="+ conn: Connection&#xa;+ driver: String&#xa;+ user: String&#xa;+ password: String&#xa;+ url: String" style="text;strokeColor=none;fillColor=none;align=left;verticalAlign=top;spacingLeft=4;spacingRight=4;overflow=hidden;rotatable=0;points=[[0,0.5],[1,0.5]];portConstraint=eastwest;" vertex="1" parent="mcNSB_kxSIxarIurhQJE-20">
          <mxGeometry y="26" width="180" height="94" as="geometry" />
        </mxCell>
        <mxCell id="mcNSB_kxSIxarIurhQJE-22" value="" style="line;strokeWidth=1;fillColor=none;align=left;verticalAlign=middle;spacingTop=-1;spacingLeft=3;spacingRight=3;rotatable=0;labelPosition=right;points=[];portConstraint=eastwest;" vertex="1" parent="mcNSB_kxSIxarIurhQJE-20">
          <mxGeometry y="120" width="180" height="8" as="geometry" />
        </mxCell>
        <mxCell id="mcNSB_kxSIxarIurhQJE-23" value="+ ConnectDB ( )&#xa;+ getConnection ( ): Connection&#xa;+ closeConnection ( ): void" style="text;strokeColor=none;fillColor=none;align=left;verticalAlign=top;spacingLeft=4;spacingRight=4;overflow=hidden;rotatable=0;points=[[0,0.5],[1,0.5]];portConstraint=eastwest;" vertex="1" parent="mcNSB_kxSIxarIurhQJE-20">
          <mxGeometry y="128" width="180" height="72" as="geometry" />
        </mxCell>
        <mxCell id="mcNSB_kxSIxarIurhQJE-24" value="QueriesDB" style="swimlane;fontStyle=1;align=center;verticalAlign=top;childLayout=stackLayout;horizontal=1;startSize=26;horizontalStack=0;resizeParent=1;resizeParentMax=0;resizeLast=0;collapsible=1;marginBottom=0;" vertex="1" parent="WIyWlLk6GJQsqaUBKTNV-1">
          <mxGeometry x="440" y="680" width="320" height="100" as="geometry" />
        </mxCell>
        <mxCell id="mcNSB_kxSIxarIurhQJE-25" value="     " style="text;strokeColor=none;fillColor=none;align=left;verticalAlign=top;spacingLeft=4;spacingRight=4;overflow=hidden;rotatable=0;points=[[0,0.5],[1,0.5]];portConstraint=eastwest;" vertex="1" parent="mcNSB_kxSIxarIurhQJE-24">
          <mxGeometry y="26" width="320" height="26" as="geometry" />
        </mxCell>
        <mxCell id="mcNSB_kxSIxarIurhQJE-26" value="" style="line;strokeWidth=1;fillColor=none;align=left;verticalAlign=middle;spacingTop=-1;spacingLeft=3;spacingRight=3;rotatable=0;labelPosition=right;points=[];portConstraint=eastwest;" vertex="1" parent="mcNSB_kxSIxarIurhQJE-24">
          <mxGeometry y="52" width="320" height="8" as="geometry" />
        </mxCell>
        <mxCell id="mcNSB_kxSIxarIurhQJE-27" value="+ getFullResultSet (ConnectDB): ArrayList&lt;PatientData&gt;" style="text;strokeColor=none;fillColor=none;align=left;verticalAlign=top;spacingLeft=4;spacingRight=4;overflow=hidden;rotatable=0;points=[[0,0.5],[1,0.5]];portConstraint=eastwest;" vertex="1" parent="mcNSB_kxSIxarIurhQJE-24">
          <mxGeometry y="60" width="320" height="40" as="geometry" />
        </mxCell>
      </root>
    </mxGraphModel>
  </diagram>
</mxfile>
